<?xml version="1.0" encoding="UTF-8"?>
<svg width="116px" height="229px" viewBox="0 0 116 229" version="1.1" xmlns="http://www.w3.org/2000/svg" xmlns:xlink="http://www.w3.org/1999/xlink">
    <title>noun-genie-4237660</title>
    <g id="Page-1" stroke="none" stroke-width="1" fill="none" fill-rule="evenodd">
        <g id="noun-genie-4237660" transform="translate(0.921872, 0.498049)" fill="#ffffff" fill-rule="nonzero">
            <path d="M57.7181278,93.4219509 C47.8581278,93.4219509 38.7361278,87.8769509 32.6911278,78.2079509 C28.1989442,70.8633252 25.8687864,62.4008632 25.9681278,53.7919509 C25.965079,51.6991212 26.0982586,49.6083108 26.3681278,47.5329509 C26.5179509,46.2810978 27.3294882,45.2065693 28.492604,44.7200052 C29.6557199,44.2334411 30.9906413,44.4100454 31.9872171,45.1823275 C32.983793,45.9546096 33.487991,47.2032043 33.3071278,48.4509509 C33.0772662,50.2219477 32.9636896,52.0061026 32.9671278,53.7919509 C32.8974595,61.0825373 34.8549331,68.2490925 38.6211278,74.4919509 C43.3621278,82.0759509 50.3211278,86.4229509 57.7211278,86.4229509 C65.5001278,86.4229509 72.6881278,81.7059509 77.4411278,73.4819509 C80.8126968,67.4718651 82.5494476,60.6827798 82.4781278,53.7919509 C82.4781278,52.4579509 82.4141278,51.1309509 82.2861278,49.8499509 C82.1610848,48.6057734 82.7093011,47.3893964 83.7242689,46.6590173 C84.7392366,45.9286381 86.0667582,45.7952189 87.206769,46.3090173 C88.3467797,46.8228156 89.1260849,47.9057734 89.2511278,49.1499509 C89.4021278,50.6619509 89.4791278,52.2219509 89.4791278,53.7879509 C89.5486152,61.9071995 87.4870022,69.9026307 83.5001278,76.9759509 C77.5491278,87.2759509 67.9121278,93.4219509 57.7181278,93.4219509 Z" id="Path"></path>
            <path d="M33.5311278,149.770951 C25.2251278,149.770951 13.9491278,145.920951 6.81612781,137.140951 C2.32312781,131.611951 -2.28387219,121.886951 1.25712781,106.967951 C8.27012781,77.4569509 34.0191278,73.0679509 35.1111278,72.8939509 C36.3519624,72.6862654 37.6087976,73.160525 38.4031121,74.1361624 C39.1974266,75.1117998 39.4069962,76.43869 38.9520304,77.6116392 C38.4970645,78.7845885 37.4475706,79.6231106 36.2031278,79.8079509 C30.0806343,81.111716 24.4111032,84.0094381 19.7681278,88.2079509 C24.2241278,92.8079509 32.3891278,103.173951 33.0121278,117.863951 C37.0661278,117.010951 43.8251278,115.717951 52.9331278,114.416951 C69.2331278,112.086951 84.3421278,120.669951 84.9781278,121.035951 C86.0479046,121.65238 86.7137572,122.78685 86.730695,124.021408 C86.7469961,125.255965 86.1119234,126.407948 85.0591278,127.052951 C81.3311278,129.337951 48.2331278,149.388951 34.2351278,149.767951 C34.0037945,149.769951 33.7691278,149.770951 33.5311278,149.770951 Z M15.0191278,93.3709509 C11.6703895,97.9028587 9.30304442,103.083022 8.06812781,108.580951 C5.75112781,118.331951 7.15812781,126.455951 12.2491278,132.722951 C18.0491278,139.865951 27.6021278,142.938951 34.0491278,142.758951 C42.7181278,142.524951 63.5801278,131.470951 75.7051278,124.458951 C70.4371278,122.427951 62.2351278,120.151951 53.9271278,121.337951 C39.0391278,123.464951 30.4061278,125.612951 30.3221278,125.637951 C29.2366846,125.910921 28.0861555,125.648309 27.2266553,124.9314 C26.3671551,124.214491 25.9023575,123.129758 25.9761278,122.012951 C26.9041278,107.934951 19.1441278,97.7449509 15.0191278,93.3759509 L15.0191278,93.3709509 Z" id="Shape"></path>
            <path d="M84.4051278,153.085951 C66.9291278,153.085951 55.6811278,141.015951 55.1341278,140.415951 C53.829079,138.989952 53.9271286,136.776 55.3531278,135.470951 C56.7791271,134.165902 58.9930789,134.263952 60.2981278,135.689951 C60.8401278,136.276951 73.5141278,149.707951 92.1711278,145.123951 C99.9851278,143.200951 106.340128,132.997951 107.278128,120.864951 C107.817128,113.904951 107.378128,90.2789509 79.1061278,78.4649509 C77.3225243,77.7193664 76.4810435,75.6690545 77.2266279,73.8854509 C77.9722123,72.1018474 80.0225242,71.2603665 81.8061278,72.0059509 C107.714128,82.8319509 115.557128,104.622951 114.258128,121.405951 C113.073128,136.705951 104.679128,149.255951 93.8431278,151.921951 C90.7557367,152.689983 87.5866104,153.080835 84.4051278,153.085951 Z" id="Path"></path>
            <path d="M45.7881278,228.007951 C45.6981278,228.007951 45.6081278,228.007951 45.5181278,227.996951 C19.3181278,225.980951 4.69612781,208.358951 1.26312781,197.006951 C-0.613872191,190.796951 0.369127809,185.621951 3.96312781,182.806951 C7.09104126,180.568288 10.4833644,178.724342 14.0631278,177.316951 C20.9741278,174.264951 26.9431278,171.629951 28.5981278,163.736951 C30.9891278,152.336951 21.2891278,147.416951 20.8751278,147.213951 C19.7474368,146.66529 18.9994767,145.555219 18.9144362,144.304026 C18.8293958,143.052833 19.4202735,141.851764 20.4633543,141.155562 C21.5064351,140.45936 22.8422836,140.374438 23.9651278,140.932951 C29.1591278,143.488951 38.2431278,151.843951 35.4491278,165.173951 C33.0561278,176.581951 24.0931278,180.539951 16.8901278,183.720951 C13.8460082,184.906113 10.9542226,186.450368 8.27612781,188.320951 C7.15112781,189.200951 7.02612781,191.876951 7.96412781,194.978951 C10.3281278,202.797951 20.0161278,215.010951 36.8641278,219.472951 C31.8831278,212.672951 26.8181278,202.691951 32.4211278,195.126951 C37.0151278,188.926951 46.9271278,187.602951 57.4211278,186.202951 C66.4211278,185.002951 75.7331278,183.761951 81.0611278,179.544951 C89.8611278,172.580951 88.6201278,155.628951 87.4001278,149.685951 C87.1486128,148.461066 87.5696718,147.195044 88.5046959,146.364783 C89.43972,145.534522 90.7466568,145.266159 91.9331959,145.660783 C93.119735,146.055407 94.0056128,147.053066 94.2571278,148.277951 C94.4711278,149.322951 99.3491278,173.997951 85.4041278,185.033951 C78.5671278,190.445951 68.2871278,191.816951 58.3461278,193.141951 C49.7571278,194.287951 40.8771278,195.471951 38.0461278,199.292951 C33.6021278,205.292951 44.1821278,218.021951 48.2381278,222.006951 C49.2539949,223.002293 49.5665543,224.513388 49.028912,225.830063 C48.4912697,227.146738 47.2103417,228.007951 45.7881278,228.006951 L45.7881278,228.007951 Z" id="Path"></path>
            <path d="M85.7671278,53.0019509 C85.3196236,53.0019509 84.8762839,52.9160002 84.4611278,52.7489509 L53.0231278,40.1019509 C44.4931278,44.4349509 36.2131278,48.6529509 31.0561278,51.2839509 C29.5148271,52.0707032 27.6299328,51.6129735 26.6211278,50.2069509 C26.2711278,49.7189509 18.0941278,38.1279509 22.4971278,27.1929509 C28.0311278,13.4459509 53.7341278,1.60995088 56.6461278,0.305950885 C57.5771916,-0.111214342 58.6439345,-0.101354 59.5671278,0.332950885 C60.3761278,0.713950885 79.4831278,9.77995088 88.6401278,20.5679509 C93.6251278,26.4409509 95.8851278,33.7099509 94.8401278,40.5119509 C94.0401278,45.7249509 91.4111278,50.0799509 87.6321278,52.4589509 C87.0741446,52.812288 86.4275749,53.0005386 85.7671278,53.0019509 Z M61.3171278,35.9019509 L85.1781278,45.4889509 C86.6807746,43.7984477 87.637887,41.6935672 87.9241278,39.4499509 C88.6611278,34.6499509 86.9791278,29.4239509 83.3081278,25.0999509 L83.1491278,24.9149509 C79.6331278,26.6319509 70.9211278,31.0269509 61.3171278,35.8949509 L61.3171278,35.9019509 Z M58.0321278,7.38595088 C49.9451278,11.2249509 32.5541278,20.9649509 28.9921278,29.8159509 C27.0191278,34.7159509 29.1681278,40.3589509 30.8081278,43.5619509 C39.8971278,38.9289509 67.1511278,25.0489509 77.7531278,19.7819509 C71.6100074,14.9996185 65.0033723,10.8445506 58.0321278,7.37895088 L58.0321278,7.38595088 Z" id="Shape"></path>
            <path d="M25.9121278,83.3409563 C25.8461278,83.3409563 25.7791278,83.3409563 25.7121278,83.3359509 C18.4271278,82.9259509 12.5571278,75.1139509 11.9121278,74.2249509 C11.0808821,73.0791397 11.0216807,71.5454296 11.7621278,70.3389509 L26.4831278,46.3389509 C27.1369238,45.273049 28.3097082,44.6369111 29.5597043,44.6701641 C30.8097004,44.7034171 31.9470042,45.4010092 32.5432043,46.5001641 C33.1394044,47.599319 33.1039238,48.933049 32.4501278,49.9989509 L19.0451278,71.8539509 C20.8211278,73.7629509 23.6361278,76.2079509 26.1071278,76.3459509 C28.0021825,76.4473008 29.4712206,78.0404474 29.4188791,79.9374884 C29.3665376,81.8345294 27.8118879,83.3442491 25.9141278,83.3409563 L25.9121278,83.3409563 Z" id="Path"></path>
            <path d="M57.7201278,105.001951 C36.8531278,105.001951 27.3891278,88.2079509 25.3001278,79.3279509 C24.8549864,77.4465929 26.0192699,75.5605925 27.9006278,75.115451 C29.7819858,74.6703095 31.6679862,75.834593 32.1131278,77.7159509 C32.3131278,78.5599509 37.2591278,98.0019509 57.7201278,98.0019509 C78.0621278,98.0019509 82.1641278,77.9499509 82.3291278,77.0969509 C82.6252178,75.5606058 83.9019195,74.405417 85.4601278,74.2639509 C88.1032414,74.0348051 90.6636667,73.2274176 92.9601278,71.8989509 L82.6321278,51.0529509 C82.0458498,49.9289103 82.1132342,48.5757082 82.808281,47.5154727 C83.5033277,46.4552373 84.7173671,45.8537351 85.9819664,45.9430535 C87.2465657,46.032372 88.3640063,46.7985463 88.9031278,47.9459509 L100.547128,71.4459509 C101.22652,72.8173328 100.936109,74.4710916 99.8301278,75.5289509 C96.6356615,78.277755 92.7655145,80.1242822 88.6191278,80.8779509 C85.9181278,90.4079509 76.9241278,105.001951 57.7201278,105.001951 Z" id="Path"></path>
            <path d="M83.2351278,127.562951 C83.1351278,127.562951 83.0271278,127.562951 82.9221278,127.548951 C81.9966711,127.466948 81.1417923,127.020349 80.5458649,126.307562 C79.9499375,125.594775 79.6618662,124.674295 79.7451278,123.748951 C79.8521278,122.541951 82.5091278,94.0639509 94.2451278,82.8739509 C95.1469612,81.9937023 96.4523852,81.6662385 97.6629163,82.0166034 C98.8734473,82.3669683 99.8021611,83.3410602 100.094423,84.5669166 C100.386685,85.7927731 99.9973652,87.0811032 99.0751278,87.9399509 C90.9021278,95.7319509 87.3841278,116.877951 86.7181278,124.367951 C86.5601065,126.174424 85.0484982,127.561041 83.2351278,127.562951 L83.2351278,127.562951 Z" id="Path"></path>
        </g>
    </g>
</svg>